<svg width="800" height="800" viewBox="0 0 800 800" fill="none" xmlns="http://www.w3.org/2000/svg">
<rect width="800" height="800" fill="white"/>
<path fill-rule="evenodd" clip-rule="evenodd" d="M359.394 92.496C298.019 97.269 238.69 123.67 197.951 164.335C171.315 190.922 153.972 219.066 144.872 250.469C142.578 258.385 142.527 259.09 143.988 262.741C146.722 269.573 156.535 271.323 162.455 266.034C164.999 263.761 166.071 261.321 168.496 252.284C172.001 239.224 179.972 222.525 189.489 208.298C205.835 183.865 226.823 163.812 253.961 146.697C293.45 121.794 350.96 108.015 400.648 111.552C464.696 116.111 524.503 141.959 567.748 183.77C599.248 214.225 621.753 255.427 628.322 294.672C629.904 304.12 630.394 311.481 630.394 325.787C630.394 347.033 630.634 347.798 638.406 351.302C642.186 353.007 642.933 353.046 646.638 351.737C654.361 349.008 654.906 347.288 654.807 325.966C654.713 305.872 652.967 292.763 647.862 273.812C640.961 248.196 625.054 218.024 605.544 193.544C597.833 183.868 578.331 164.252 568.385 156.167C549.197 140.568 518.859 122.577 496.862 113.753C468.783 102.489 438.32 95.069 410.894 92.815C399.682 91.893 369.545 91.707 359.394 92.496ZM360.394 152.831C320.705 157.717 285.458 173.98 257.797 200.171C231.098 225.449 216.195 252.325 208.858 288.423C206.767 298.712 206.395 303.33 206.398 318.923C206.402 339.374 207.86 351.162 212.129 365.266C214.332 372.546 215.581 374.951 218.755 378.032C223.692 382.822 226.33 383.475 232.003 381.309C235.662 379.911 236.935 378.736 238.679 375.148C241.065 370.235 241.314 372.515 235.638 347.297C234.503 342.255 234.039 334.562 233.978 319.797C233.885 297.2 234.782 290.062 239.629 274.797C245.719 255.617 253.652 241.514 266.734 226.609C289.5 200.67 317.873 184.311 353.394 176.644C367.549 173.588 400.147 173.299 413.394 176.112C445.072 182.838 472.062 197.368 494.445 219.748C519.418 244.716 531.904 271.554 533.083 302.797C533.9 324.424 530.23 341.696 521.084 359.276C517.02 367.088 512.849 372.617 499.221 388.261C491.493 397.133 490.119 401.307 492.958 407.29C497.05 415.913 507.738 419.229 516.996 414.748C526.901 409.953 542.988 390.789 550.88 374.383C560.955 353.438 564.602 337.247 564.525 313.797C564.395 274.18 552.02 243.74 522.894 211.39C509.424 196.429 486.134 178.998 468.175 170.436C459.075 166.098 438.785 159.114 428.894 156.915C410.64 152.857 376.646 150.83 360.394 152.831Z" fill="url(#paint0_linear_255_3037)"/>
<path d="M394.794 297.562C393.029 298.741 391.678 301.965 390.925 306.797C388.824 320.274 382.574 347.803 380.198 354.047L379.151 356.797L366.523 356.891C346.384 357.041 335.719 358.042 333.799 359.962C331.053 362.71 332.689 366.507 337.152 367.747C342.119 369.126 379.196 369.111 383.164 367.727C386.693 366.497 388.222 363.345 390.892 351.797C391.846 347.672 392.984 342.947 393.42 341.297L394.214 338.297L395.93 344.5C396.43 346 397.576 368.16 398.825 389.297C401.187 429.272 401.503 432.258 403.564 434.032C407.591 437.499 411.394 432.765 411.394 424.286C411.394 421.876 412.273 412.568 413.348 403.601C414.423 394.634 416.009 380.681 416.872 372.595C418.873 353.857 420.215 347.13 421.955 347.13C422.41 347.314 425.618 353.122 427.554 357.797C429.969 363.632 431.829 366.684 433.483 367.532C436.504 369.08 500.856 369.332 504.855 367.812C507.897 366.655 508.843 364.721 508.002 361.372C506.941 357.145 502.509 356.502 478.52 357.094C466.626 357.388 452.296 357.374 446.677 357.064L436.459 356.499L433.788 348.398C429.126 334.256 425.971 329.797 420.626 329.797C417.487 329.797 413.79 333.705 412.496 338.388C411.912 340.504 410.648 348.763 409.688 356.742C407.592 374.144 406.961 372.282 405.978 345.797C404.971 318.65 403.447 301.599 401.8 299.047C400.374 296.837 396.962 296.114 394.794 297.562Z" fill="url(#paint1_linear_255_3037)"/>
<path d="M385.394 234.217C371.526 237.123 354.628 244.057 341.894 252.066C328.107 260.738 310.101 277.191 306.282 284.609C305.52 286.087 304.596 287.526 304.228 287.805C301.342 289.996 292.175 309.896 288.339 322.297C281.843 343.295 283.928 378.145 293.067 401.297C297.426 412.341 300.883 418.651 308.954 430.297C321.785 448.811 334.798 460.514 365.394 481.056C382.693 492.67 397.201 502.915 432.758 528.626C444.142 536.858 457.86 543.907 467.021 546.233C490.462 552.183 517.123 548.982 540.946 537.356C555.346 530.329 565.433 522.713 578.644 508.897L589.394 497.654C591.148 495.365 594.055 494.501 594.5 494.5C595.25 494.751 598.304 495.392 600 498.121C599.968 515.361 596.953 539.194 586.773 552.5C562.949 583.642 499.89 595.674 456.516 583.15C441.797 578.901 424.17 568.424 403.564 553.5C392.965 545.823 398.021 549.682 381.894 547.252C367.458 545.076 341.321 538.52 329.394 534.082C267.147 510.923 216.872 466.926 187.678 410.065C181.724 398.468 170.417 370 170.417 367.595L169.38 363.446C166.255 350.947 158.925 345.885 150.361 350.314C145.451 352.853 144.028 356.876 145.352 364.477C147.324 375.803 156.229 400.664 164.007 416.56C170.862 430.57 186.8 453.366 192.65 462.433C198.5 471.5 216 484.5 224 493.5C232 502.5 289.5 557.833 381.986 568C411.761 592.913 427.694 602.128 455.355 614.126C480.726 621.18 512.965 621.014 539.219 613.693C579.603 602.432 613.265 570.445 623.077 534.008C625.232 526.008 625.685 522.183 625.652 512.297C625.518 473.005 606.971 446.078 586.773 455.855C583.66 457.363 578.485 462.578 567.443 475.338C545.319 500.905 533.566 510.039 513.616 517.173C505.36 520.126 502.787 522.498 488.93 522.5C479.716 521.609 474.623 520.72 466.254 515.54C461.033 512.886 449.377 505.184 439.894 498.121C430.544 491.158 412.319 478.017 399.394 468.921C366.975 446.105 360.321 440.897 349.394 429.792C334.117 414.265 324.634 396.83 320.092 375.919C317.109 362.183 317.178 337.729 320.231 326.297C330.343 288.433 364.098 261.782 401.894 261.821C420.835 261.841 434.892 266.904 450.394 279.291C455.069 283.027 460.342 286.694 462.112 287.44C471.012 291.193 481.993 286.19 484.815 277.096C485.19 275.886 484.996 273.032 484.383 270.756C481.226 259.031 455.931 242.73 430.688 236.152C418.56 232.992 395.869 232.022 385.394 234.217Z" fill="url(#paint2_linear_255_3037)"/>
<path d="M157.643 750L148.643 737.9C145.977 738.433 143.377 738.7 140.843 738.7C134.243 738.7 128.177 737.167 122.643 734.1C117.177 731.033 112.81 726.767 109.543 721.3C106.343 715.767 104.743 709.567 104.743 702.7C104.743 695.833 106.343 689.667 109.543 684.2C112.81 678.733 117.177 674.467 122.643 671.4C128.177 668.333 134.243 666.8 140.843 666.8C147.443 666.8 153.477 668.333 158.943 671.4C164.477 674.467 168.81 678.733 171.943 684.2C175.143 689.667 176.743 695.833 176.743 702.7C176.743 708.7 175.51 714.2 173.043 719.2C170.643 724.133 167.277 728.233 162.943 731.5L178.343 750H157.643ZM122.243 702.7C122.243 708.9 123.91 713.867 127.243 717.6C130.643 721.267 135.177 723.1 140.843 723.1C146.443 723.1 150.91 721.233 154.243 717.5C157.643 713.767 159.343 708.833 159.343 702.7C159.343 696.5 157.643 691.567 154.243 687.9C150.91 684.167 146.443 682.3 140.843 682.3C135.177 682.3 130.643 684.133 127.243 687.8C123.91 691.467 122.243 696.433 122.243 702.7ZM239.552 682.2V738H222.452V730.4C220.719 732.867 218.352 734.867 215.352 736.4C212.419 737.867 209.152 738.6 205.552 738.6C201.285 738.6 197.519 737.667 194.252 735.8C190.985 733.867 188.452 731.1 186.652 727.5C184.852 723.9 183.952 719.667 183.952 714.8V682.2H200.952V712.5C200.952 716.233 201.919 719.133 203.852 721.2C205.785 723.267 208.385 724.3 211.652 724.3C214.985 724.3 217.619 723.267 219.552 721.2C221.485 719.133 222.452 716.233 222.452 712.5V682.2H239.552ZM266.935 691.5C268.935 688.433 271.435 686.033 274.435 684.3C277.435 682.5 280.768 681.6 284.435 681.6V699.7H279.735C275.468 699.7 272.268 700.633 270.135 702.5C268.001 704.3 266.935 707.5 266.935 712.1V738H249.835V682.2H266.935V691.5ZM343.208 709.2C343.208 710.8 343.108 712.467 342.908 714.2H304.208C304.475 717.667 305.575 720.333 307.508 722.2C309.508 724 311.942 724.9 314.808 724.9C319.075 724.9 322.042 723.1 323.708 719.5H341.908C340.975 723.167 339.275 726.467 336.808 729.4C334.408 732.333 331.375 734.633 327.708 736.3C324.042 737.967 319.942 738.8 315.408 738.8C309.942 738.8 305.075 737.633 300.808 735.3C296.542 732.967 293.208 729.633 290.808 725.3C288.408 720.967 287.208 715.9 287.208 710.1C287.208 704.3 288.375 699.233 290.708 694.9C293.108 690.567 296.442 687.233 300.708 684.9C304.975 682.567 309.875 681.4 315.408 681.4C320.808 681.4 325.608 682.533 329.808 684.8C334.008 687.067 337.275 690.3 339.608 694.5C342.008 698.7 343.208 703.6 343.208 709.2ZM325.708 704.7C325.708 701.767 324.708 699.433 322.708 697.7C320.708 695.967 318.208 695.1 315.208 695.1C312.342 695.1 309.908 695.933 307.908 697.6C305.975 699.267 304.775 701.633 304.308 704.7H325.708ZM413.029 738H395.929L367.329 694.7V738H350.229V667.8H367.329L395.929 711.3V667.8H413.029V738ZM448.825 738.8C443.358 738.8 438.425 737.633 434.025 735.3C429.691 732.967 426.258 729.633 423.725 725.3C421.258 720.967 420.025 715.9 420.025 710.1C420.025 704.367 421.291 699.333 423.825 695C426.358 690.6 429.825 687.233 434.225 684.9C438.625 682.567 443.558 681.4 449.025 681.4C454.491 681.4 459.425 682.567 463.825 684.9C468.225 687.233 471.691 690.6 474.225 695C476.758 699.333 478.025 704.367 478.025 710.1C478.025 715.833 476.725 720.9 474.125 725.3C471.591 729.633 468.091 732.967 463.625 735.3C459.225 737.633 454.291 738.8 448.825 738.8ZM448.825 724C452.091 724 454.858 722.8 457.125 720.4C459.458 718 460.625 714.567 460.625 710.1C460.625 705.633 459.491 702.2 457.225 699.8C455.025 697.4 452.291 696.2 449.025 696.2C445.691 696.2 442.925 697.4 440.725 699.8C438.525 702.133 437.425 705.567 437.425 710.1C437.425 714.567 438.491 718 440.625 720.4C442.825 722.8 445.558 724 448.825 724ZM516.196 723.5V738H507.496C501.296 738 496.463 736.5 492.996 733.5C489.53 730.433 487.796 725.467 487.796 718.6V696.4H480.996V682.2H487.796V668.6H504.896V682.2H516.096V696.4H504.896V718.8C504.896 720.467 505.296 721.667 506.096 722.4C506.896 723.133 508.23 723.5 510.096 723.5H516.196ZM576.321 709.2C576.321 710.8 576.221 712.467 576.021 714.2H537.321C537.588 717.667 538.688 720.333 540.621 722.2C542.621 724 545.055 724.9 547.921 724.9C552.188 724.9 555.155 723.1 556.821 719.5H575.021C574.088 723.167 572.388 726.467 569.921 729.4C567.521 732.333 564.488 734.633 560.821 736.3C557.155 737.967 553.055 738.8 548.521 738.8C543.055 738.8 538.188 737.633 533.921 735.3C529.655 732.967 526.321 729.633 523.921 725.3C521.521 720.967 520.321 715.9 520.321 710.1C520.321 704.3 521.488 699.233 523.821 694.9C526.221 690.567 529.555 687.233 533.821 684.9C538.088 682.567 542.988 681.4 548.521 681.4C553.921 681.4 558.721 682.533 562.921 684.8C567.121 687.067 570.388 690.3 572.721 694.5C575.121 698.7 576.321 703.6 576.321 709.2ZM558.821 704.7C558.821 701.767 557.821 699.433 555.821 697.7C553.821 695.967 551.321 695.1 548.321 695.1C545.455 695.1 543.021 695.933 541.021 697.6C539.088 699.267 537.888 701.633 537.421 704.7H558.821ZM646.234 725.6H620.034L615.834 738H597.934L623.334 667.8H643.134L668.534 738H650.434L646.234 725.6ZM641.834 712.4L633.134 686.7L624.534 712.4H641.834ZM691.364 667.8V738H674.264V667.8H691.364Z" fill="#054FB0"/>
<defs>
<linearGradient id="paint0_linear_255_3037" x1="398.908" y1="92" x2="398.908" y2="619.302" gradientUnits="userSpaceOnUse">
<stop stop-color="#10C2FC"/>
<stop offset="1" stop-color="#044CAE"/>
</linearGradient>
<linearGradient id="paint1_linear_255_3037" x1="398.908" y1="92" x2="398.908" y2="619.302" gradientUnits="userSpaceOnUse">
<stop stop-color="#10C2FC"/>
<stop offset="1" stop-color="#044CAE"/>
</linearGradient>
<linearGradient id="paint2_linear_255_3037" x1="398.908" y1="92" x2="398.908" y2="619.302" gradientUnits="userSpaceOnUse">
<stop stop-color="#10C2FC"/>
<stop offset="1" stop-color="#044CAE"/>
</linearGradient>
</defs>
</svg>
