<svg width="250" height="250" viewBox="0 0 250 250" fill="none" xmlns="http://www.w3.org/2000/svg">
<path d="M179.688 109.375V132.812C179.688 147.317 173.926 161.227 163.67 171.482C153.414 181.738 139.504 187.5 125 187.5C110.496 187.5 96.586 181.738 86.3301 171.482C76.0742 161.227 70.3125 147.317 70.3125 132.812V109.375H54.6875V132.812C54.6957 150.102 61.0739 166.782 72.6033 179.667C84.1327 192.551 100.005 200.735 117.188 202.656V218.75H85.9375V234.375H164.062V218.75H132.812V202.656C149.995 200.735 165.867 192.551 177.397 179.667C188.926 166.782 195.304 150.102 195.312 132.812V109.375H179.688Z" fill="#0085FE"/>
<path d="M125 171.883C135.36 171.883 145.295 167.767 152.621 160.442C159.947 153.116 164.062 143.18 164.062 132.82V54.6953C164.062 44.3353 159.947 34.3996 152.621 27.074C145.295 19.7483 135.36 15.6328 125 15.6328C114.639 15.6328 104.704 19.7483 97.3782 27.074C90.0525 34.3996 85.937 44.3353 85.937 54.6953V132.82C85.937 143.18 90.0525 153.116 97.3782 160.442C104.704 167.767 114.639 171.883 125 171.883Z" fill="#0085FE"/>
</svg>
