<svg width="142" height="142" viewBox="0 0 142 142" fill="none" xmlns="http://www.w3.org/2000/svg">
<path d="M70.6621 0C31.6364 0 0 31.6364 0 70.6621C0 109.688 31.6364 141.324 70.6621 141.324C109.688 141.324 141.324 109.688 141.324 70.6621C141.324 31.6364 109.688 0 70.6621 0ZM70.6621 13.6765C102.156 13.6765 127.648 39.1636 127.648 70.6621C127.648 102.156 102.161 127.648 70.6621 127.648C39.1685 127.648 13.6765 102.161 13.6765 70.6621C13.6765 39.1685 39.1636 13.6765 70.6621 13.6765ZM110.61 50.7932L104.189 44.3202C102.859 42.9796 100.694 42.9708 99.3538 44.3009L59.0786 84.2523L42.0422 67.0777C40.7125 65.7371 38.5476 65.7283 37.207 67.058L30.7337 73.4792C29.3932 74.8089 29.3843 76.9738 30.7144 78.3147L56.5804 104.39C57.9101 105.731 60.075 105.74 61.4156 104.41L110.591 55.6287C111.931 54.2987 111.94 52.1338 110.61 50.7932Z" fill="url(#paint0_radial_70_773)"/>
<defs>
<radialGradient id="paint0_radial_70_773" cx="0" cy="0" r="1" gradientUnits="userSpaceOnUse" gradientTransform="translate(70.6621 70.6621) rotate(90) scale(70.6621)">
<stop offset="0.84" stop-color="white"/>
<stop offset="0.995" stop-color="#0085FE"/>
</radialGradient>
</defs>
</svg>
