<svg width="22" height="23" viewBox="0 0 22 23" fill="none" xmlns="http://www.w3.org/2000/svg">
<g clip-path="url(#clip0_786_1062)">
<path d="M11 6.34953C10.339 6.34766 9.68412 6.4765 9.07308 6.72865C8.46204 6.9808 7.90688 7.35127 7.43954 7.81875C6.9722 8.28624 6.60191 8.84151 6.34995 9.45263C6.09799 10.0637 5.96935 10.7187 5.97143 11.3797C5.96956 12.0405 6.09837 12.6951 6.35043 13.306C6.6025 13.9168 6.97286 14.4718 7.44019 14.939C7.90753 15.4062 8.46263 15.7764 9.07356 16.0283C9.68449 16.2801 10.3392 16.4087 11 16.4067C11.6607 16.4085 12.3152 16.2798 12.926 16.0278C13.5367 15.7758 14.0916 15.4056 14.5588 14.9385C15.026 14.4713 15.3962 13.9164 15.6481 13.3056C15.9001 12.6949 16.0289 12.0403 16.027 11.3797C16.0293 10.7187 15.9008 10.0639 15.6491 9.45275C15.3973 8.84164 15.0271 8.28635 14.5599 7.81885C14.0927 7.35134 13.5376 6.98084 12.9267 6.72868C12.3157 6.47651 11.6609 6.34766 11 6.34953ZM11 14.5995C10.1456 14.5995 9.32624 14.2601 8.72211 13.656C8.11797 13.0519 7.77857 12.2325 7.77857 11.3781C7.77857 10.5237 8.11797 9.70434 8.72211 9.1002C9.32624 8.49607 10.1456 8.15667 11 8.15667C11.8544 8.15667 12.6738 8.49607 13.2779 9.1002C13.882 9.70434 14.2214 10.5237 14.2214 11.3781C14.2214 12.2325 13.882 13.0519 13.2779 13.656C12.6738 14.2601 11.8544 14.5995 11 14.5995ZM18.8571 3.52567C18.3669 3.03538 17.4696 3.13596 16.8567 3.74881C16.2439 4.36324 16.1449 5.25581 16.6351 5.74767C17.1254 6.23953 18.0211 6.14053 18.6356 5.5261C19.2484 4.91324 19.3474 4.01596 18.8571 3.52567ZM3.366 17.2427C2.75157 17.8555 2.65257 18.7497 3.14286 19.24C3.63314 19.7302 4.52886 19.6328 5.14329 19.0184C5.75771 18.404 5.85671 17.5082 5.36643 17.018C4.87614 16.5277 3.97886 16.6282 3.366 17.2427ZM3.14286 3.52567C2.65257 4.01596 2.75157 4.91324 3.36443 5.5261C3.97886 6.14053 4.87457 6.23796 5.36486 5.74767C5.85514 5.25738 5.75614 4.3601 5.14171 3.74724C4.53043 3.13595 3.63314 3.03538 3.14286 3.52567ZM16.8567 19.0152C17.4696 19.6297 18.3653 19.7302 18.8571 19.24C19.349 18.7497 19.2484 17.8524 18.634 17.238C18.0196 16.6235 17.1254 16.5261 16.6336 17.0164C16.1417 17.5067 16.2439 18.4024 16.8567 19.0152ZM11 3.52253C11.693 3.52253 12.2571 2.8201 12.2571 1.9511C12.2556 1.0821 11.693 0.382812 11 0.382812C10.3054 0.382812 9.74129 1.0821 9.74129 1.9511C9.74129 2.8201 10.3039 3.52253 11 3.52253ZM11 22.3828C11.693 22.3828 12.2571 21.6804 12.2571 20.8114C12.2571 19.9424 11.6946 19.2431 11.0016 19.2431C10.307 19.2431 9.74286 19.9424 9.74286 20.8114C9.74129 21.6804 10.3039 22.3828 11 22.3828ZM3.14286 11.3828C3.14286 10.6898 2.43571 10.1257 1.56671 10.1257C0.697714 10.1257 0 10.6898 0 11.3828C0 12.0774 0.697714 12.64 1.56671 12.64C2.43571 12.64 3.14286 12.0774 3.14286 11.3828ZM22 11.3828C22 10.6898 21.296 10.1257 20.427 10.1257C19.558 10.1257 18.8571 10.6898 18.8571 11.3828C18.8571 12.0774 19.558 12.64 20.427 12.64C21.296 12.64 22 12.0774 22 11.3828Z" fill="#0085FE"/>
</g>
<defs>
<clipPath id="clip0_786_1062">
<rect width="22" height="22" fill="white" transform="translate(0 0.382812)"/>
</clipPath>
</defs>
</svg>
