<svg width="299" height="279" viewBox="0 0 299 279" fill="none" xmlns="http://www.w3.org/2000/svg">
<path fill-rule="evenodd" clip-rule="evenodd" d="M134.559 0.193821C110.576 2.05894 87.3924 12.3755 71.473 28.266C61.0646 38.6552 54.2875 49.6529 50.7316 61.9241C49.8351 65.0174 49.8152 65.2929 50.3861 66.7196C51.4545 69.3893 55.2891 70.0731 57.6024 68.0064C58.5965 67.1182 59.0154 66.1647 59.963 62.6334C61.3326 57.53 64.4474 51.0046 68.1663 45.4452C74.5538 35.8976 82.7551 28.0616 93.3597 21.3737C108.791 11.6424 131.264 6.2581 150.68 7.64024C175.708 9.42174 199.078 19.5222 215.977 35.8605C228.286 47.7612 237.08 63.8615 239.647 79.1971C240.265 82.8891 240.457 85.7655 240.457 91.3558C240.457 99.658 240.55 99.9569 243.587 101.326C245.064 101.992 245.356 102.008 246.804 101.496C249.822 100.43 250.035 99.7576 249.996 91.4257C249.96 83.5737 249.277 78.4511 247.282 71.0458C244.586 61.0359 238.37 49.2458 230.746 39.6798C227.733 35.8988 220.112 28.2335 216.226 25.0742C208.728 18.9787 196.873 11.9484 188.277 8.50031C177.305 4.09873 165.401 1.19926 154.684 0.318475C150.302 -0.0418103 138.526 -0.114493 134.559 0.193821ZM134.95 23.7706C119.441 25.6799 105.668 32.0349 94.8587 42.2694C84.4257 52.1472 78.6021 62.6494 75.735 76.7552C74.918 80.7758 74.7726 82.5804 74.7738 88.6736C74.7753 96.6651 75.3451 101.271 77.0132 106.783C77.8741 109.628 78.3622 110.567 79.6024 111.771C81.5317 113.643 82.5625 113.898 84.7793 113.052C86.2091 112.506 86.7066 112.046 87.3881 110.644C88.3204 108.724 88.4177 109.615 86.1997 99.7611C85.7562 97.7909 85.5749 94.7847 85.5511 89.0151C85.5147 80.185 85.8652 77.3957 87.7593 71.4307C90.139 63.9358 93.239 58.4248 98.351 52.6005C107.247 42.4644 118.334 36.0719 132.215 33.0759C137.746 31.8817 150.484 31.7688 155.661 32.868C168.039 35.4963 178.586 41.1741 187.332 49.9194C197.091 59.6761 201.97 70.1634 202.431 82.3721C202.75 90.8232 201.316 97.5724 197.742 104.442C196.154 107.495 194.524 109.655 189.199 115.768C186.179 119.235 185.642 120.866 186.751 123.204C188.35 126.574 192.527 127.87 196.145 126.119C200.015 124.245 206.301 116.756 209.385 110.345C213.322 102.161 214.747 95.8339 214.717 86.6705C214.666 71.1896 209.831 59.2947 198.449 46.6534C193.186 40.8072 184.085 33.9958 177.067 30.65C173.511 28.9549 165.582 26.2258 161.717 25.3665C154.584 23.7808 141.301 22.9887 134.95 23.7706Z" fill="url(#paint0_linear_234_3)"/>
<path d="M148.392 80.3264C147.703 80.7871 147.175 82.047 146.88 83.9351C146.059 89.2015 143.617 99.9588 142.689 102.399L142.28 103.473L137.345 103.51C129.475 103.569 125.308 103.96 124.558 104.71C123.485 105.784 124.124 107.268 125.868 107.752C127.809 108.291 142.297 108.285 143.848 107.744C145.227 107.264 145.824 106.032 146.868 101.52C147.24 99.9077 147.685 98.0613 147.855 97.4165L148.166 96.2442L148.836 98.6682C149.031 99.2543 149.479 107.914 149.967 116.173C150.89 131.794 151.014 132.961 151.819 133.654C153.393 135.009 154.879 133.159 154.879 129.846C154.879 128.904 155.223 125.267 155.643 121.763C156.063 118.259 156.682 112.806 157.02 109.647C157.802 102.325 158.326 99.6959 159.006 99.6959C159.184 99.7678 160.437 102.037 161.194 103.864C162.137 106.144 162.864 107.337 163.511 107.668C164.691 108.273 189.838 108.372 191.4 107.778C192.589 107.326 192.959 106.57 192.63 105.261C192.215 103.609 190.484 103.358 181.11 103.589C176.462 103.704 170.862 103.699 168.666 103.578L164.674 103.357L163.63 100.191C161.808 94.6652 160.575 92.9227 158.487 92.9227C157.26 92.9227 155.815 94.4498 155.31 96.2798C155.081 97.1067 154.588 100.334 154.212 103.452C153.393 110.252 153.147 109.524 152.763 99.175C152.369 88.5669 151.774 81.9039 151.13 80.9067C150.573 80.0431 149.239 79.7606 148.392 80.3264Z" fill="url(#paint1_linear_234_3)"/>
<path d="M144.719 55.5734C139.3 56.709 132.697 59.4186 127.721 62.5482C122.333 65.9369 115.297 72.3662 113.805 75.2649C113.507 75.8424 113.146 76.4047 113.002 76.5137C111.875 77.3699 108.292 85.1461 106.793 89.992C104.255 98.1973 105.07 111.815 108.641 120.862C110.344 125.178 111.695 127.644 114.849 132.195C119.863 139.429 124.948 144.002 136.904 152.029C143.664 156.568 149.333 160.571 163.227 170.618C167.676 173.835 173.036 176.589 176.616 177.498C185.776 179.823 196.194 178.573 205.503 174.03C211.13 171.284 215.072 168.308 220.234 162.909L224.435 158.515C225.121 157.621 226.256 157.283 226.43 157.283C226.724 157.381 227.917 157.631 228.58 158.698C228.567 165.435 227.389 174.748 223.411 179.947C214.101 192.116 189.46 196.818 172.511 191.924C166.759 190.264 159.871 186.17 151.819 180.338C147.678 177.338 149.653 178.846 143.351 177.897C137.71 177.046 127.497 174.484 122.836 172.75C98.5123 163.7 78.8666 146.508 67.4586 124.289C65.132 119.757 60.7137 108.633 60.7137 107.693L60.3084 106.072C59.0873 101.187 56.223 99.2094 52.8765 100.94C50.9578 101.932 50.4018 103.504 50.9191 106.474C51.6897 110.9 55.1695 120.615 58.2089 126.827C60.8875 132.301 67.1156 141.209 69.4015 144.752C71.6875 148.295 78.5258 153.375 81.652 156.892C84.7781 160.409 107.247 182.031 143.387 186.004C155.022 195.739 161.249 199.34 172.057 204.029C181.972 206.785 194.569 206.72 204.829 203.859C220.609 199.459 233.763 186.96 237.597 172.721C238.439 169.595 238.616 168.1 238.604 164.237C238.551 148.883 231.304 138.361 223.411 142.182C222.195 142.771 220.172 144.809 215.858 149.795C207.212 159.786 202.62 163.355 194.824 166.143C191.598 167.297 190.592 168.224 185.177 168.224C181.577 167.876 179.587 167.529 176.316 165.505C174.276 164.467 169.721 161.458 166.016 158.698C162.362 155.977 155.24 150.842 150.19 147.288C137.522 138.372 134.921 136.337 130.652 131.997C124.682 125.93 120.976 119.117 119.201 110.946C118.036 105.578 118.063 96.0223 119.256 91.5551C123.207 76.7591 136.397 66.3448 151.167 66.3601C158.568 66.3679 164.061 68.3463 170.119 73.1868C171.946 74.6467 174.006 76.0796 174.698 76.3711C178.176 77.8376 182.467 75.8826 183.569 72.329C183.716 71.8562 183.64 70.741 183.401 69.8516C182.167 65.2699 172.283 58.9 162.418 56.3296C157.679 55.0947 148.812 54.7157 144.719 55.5734Z" fill="url(#paint2_linear_234_3)"/>
<path d="M28.5717 279L24.0717 272.95C22.7383 273.217 21.4383 273.35 20.1717 273.35C16.8717 273.35 13.8383 272.583 11.0717 271.05C8.33835 269.517 6.15501 267.383 4.52168 264.65C2.92168 261.883 2.12168 258.783 2.12168 255.35C2.12168 251.917 2.92168 248.833 4.52168 246.1C6.15501 243.367 8.33835 241.233 11.0717 239.7C13.8383 238.167 16.8717 237.4 20.1717 237.4C23.4717 237.4 26.4883 238.167 29.2217 239.7C31.9883 241.233 34.155 243.367 35.7217 246.1C37.3217 248.833 38.1217 251.917 38.1217 255.35C38.1217 258.35 37.505 261.1 36.2717 263.6C35.0717 266.067 33.3883 268.117 31.2217 269.75L38.9217 279H28.5717ZM10.8717 255.35C10.8717 258.45 11.705 260.933 13.3717 262.8C15.0717 264.633 17.3383 265.55 20.1717 265.55C22.9717 265.55 25.205 264.617 26.8717 262.75C28.5717 260.883 29.4217 258.417 29.4217 255.35C29.4217 252.25 28.5717 249.783 26.8717 247.95C25.205 246.083 22.9717 245.15 20.1717 245.15C17.3383 245.15 15.0717 246.067 13.3717 247.9C11.705 249.733 10.8717 252.217 10.8717 255.35ZM69.526 245.1V273H60.976V269.2C60.1093 270.433 58.926 271.433 57.426 272.2C55.9593 272.933 54.326 273.3 52.526 273.3C50.3926 273.3 48.5093 272.833 46.876 271.9C45.2426 270.933 43.976 269.55 43.076 267.75C42.176 265.95 41.726 263.833 41.726 261.4V245.1H50.226V260.25C50.226 262.117 50.7093 263.567 51.676 264.6C52.6426 265.633 53.9426 266.15 55.576 266.15C57.2426 266.15 58.5593 265.633 59.526 264.6C60.4926 263.567 60.976 262.117 60.976 260.25V245.1H69.526ZM83.2174 249.75C84.2174 248.217 85.4674 247.017 86.9674 246.15C88.4674 245.25 90.1341 244.8 91.9674 244.8V253.85H89.6174C87.4841 253.85 85.8841 254.317 84.8174 255.25C83.7507 256.15 83.2174 257.75 83.2174 260.05V273H74.6674V245.1H83.2174V249.75ZM121.354 258.6C121.354 259.4 121.304 260.233 121.204 261.1H101.854C101.987 262.833 102.537 264.167 103.504 265.1C104.504 266 105.721 266.45 107.154 266.45C109.287 266.45 110.771 265.55 111.604 263.75H120.704C120.237 265.583 119.387 267.233 118.154 268.7C116.954 270.167 115.437 271.317 113.604 272.15C111.771 272.983 109.721 273.4 107.454 273.4C104.721 273.4 102.287 272.817 100.154 271.65C98.0208 270.483 96.3541 268.817 95.1541 266.65C93.9541 264.483 93.3541 261.95 93.3541 259.05C93.3541 256.15 93.9374 253.617 95.1041 251.45C96.3041 249.283 97.9708 247.617 100.104 246.45C102.237 245.283 104.687 244.7 107.454 244.7C110.154 244.7 112.554 245.267 114.654 246.4C116.754 247.533 118.387 249.15 119.554 251.25C120.754 253.35 121.354 255.8 121.354 258.6ZM112.604 256.35C112.604 254.883 112.104 253.717 111.104 252.85C110.104 251.983 108.854 251.55 107.354 251.55C105.921 251.55 104.704 251.967 103.704 252.8C102.737 253.633 102.137 254.817 101.904 256.35H112.604ZM156.265 273H147.715L133.415 251.35V273H124.865V237.9H133.415L147.715 259.65V237.9H156.265V273ZM174.162 273.4C171.429 273.4 168.962 272.817 166.762 271.65C164.596 270.483 162.879 268.817 161.612 266.65C160.379 264.483 159.762 261.95 159.762 259.05C159.762 256.183 160.396 253.667 161.662 251.5C162.929 249.3 164.662 247.617 166.862 246.45C169.062 245.283 171.529 244.7 174.262 244.7C176.996 244.7 179.462 245.283 181.662 246.45C183.862 247.617 185.596 249.3 186.862 251.5C188.129 253.667 188.762 256.183 188.762 259.05C188.762 261.917 188.112 264.45 186.812 266.65C185.546 268.817 183.796 270.483 181.562 271.65C179.362 272.817 176.896 273.4 174.162 273.4ZM174.162 266C175.796 266 177.179 265.4 178.312 264.2C179.479 263 180.062 261.283 180.062 259.05C180.062 256.817 179.496 255.1 178.362 253.9C177.262 252.7 175.896 252.1 174.262 252.1C172.596 252.1 171.212 252.7 170.112 253.9C169.012 255.067 168.462 256.783 168.462 259.05C168.462 261.283 168.996 263 170.062 264.2C171.162 265.4 172.529 266 174.162 266ZM207.848 265.75V273H203.498C200.398 273 197.982 272.25 196.248 270.75C194.515 269.217 193.648 266.733 193.648 263.3V252.2H190.248V245.1H193.648V238.3H202.198V245.1H207.798V252.2H202.198V263.4C202.198 264.233 202.398 264.833 202.798 265.2C203.198 265.567 203.865 265.75 204.798 265.75H207.848ZM237.911 258.6C237.911 259.4 237.861 260.233 237.761 261.1H218.411C218.544 262.833 219.094 264.167 220.061 265.1C221.061 266 222.277 266.45 223.711 266.45C225.844 266.45 227.327 265.55 228.161 263.75H237.261C236.794 265.583 235.944 267.233 234.711 268.7C233.511 270.167 231.994 271.317 230.161 272.15C228.327 272.983 226.277 273.4 224.011 273.4C221.277 273.4 218.844 272.817 216.711 271.65C214.577 270.483 212.911 268.817 211.711 266.65C210.511 264.483 209.911 261.95 209.911 259.05C209.911 256.15 210.494 253.617 211.661 251.45C212.861 249.283 214.527 247.617 216.661 246.45C218.794 245.283 221.244 244.7 224.011 244.7C226.711 244.7 229.111 245.267 231.211 246.4C233.311 247.533 234.944 249.15 236.111 251.25C237.311 253.35 237.911 255.8 237.911 258.6ZM229.161 256.35C229.161 254.883 228.661 253.717 227.661 252.85C226.661 251.983 225.411 251.55 223.911 251.55C222.477 251.55 221.261 251.967 220.261 252.8C219.294 253.633 218.694 254.817 218.461 256.35H229.161ZM272.867 266.8H259.767L257.667 273H248.717L261.417 237.9H271.317L284.017 273H274.967L272.867 266.8ZM270.667 260.2L266.317 247.35L262.017 260.2H270.667ZM295.432 237.9V273H286.882V237.9H295.432Z" fill="#054FB0"/>
<defs>
<linearGradient id="paint0_linear_234_3" x1="150" y1="0" x2="150" y2="206.051" gradientUnits="userSpaceOnUse">
<stop stop-color="#10C2FC"/>
<stop offset="1" stop-color="#044CAE"/>
</linearGradient>
<linearGradient id="paint1_linear_234_3" x1="150" y1="0" x2="150" y2="206.051" gradientUnits="userSpaceOnUse">
<stop stop-color="#10C2FC"/>
<stop offset="1" stop-color="#044CAE"/>
</linearGradient>
<linearGradient id="paint2_linear_234_3" x1="150" y1="0" x2="150" y2="206.051" gradientUnits="userSpaceOnUse">
<stop stop-color="#10C2FC"/>
<stop offset="1" stop-color="#044CAE"/>
</linearGradient>
</defs>
</svg>
