<svg width="900" height="900" viewBox="0 0 900 900" fill="none" xmlns="http://www.w3.org/2000/svg">
<rect width="900" height="900" fill="white"/>
<path fill-rule="evenodd" clip-rule="evenodd" d="M410.394 186.496C349.019 191.269 289.69 217.67 248.951 258.335C222.315 284.922 204.972 313.066 195.872 344.469C193.578 352.385 193.527 353.09 194.988 356.741C197.722 363.573 207.535 365.323 213.455 360.034C215.999 357.761 217.071 355.321 219.496 346.284C223.001 333.224 230.972 316.525 240.489 302.298C256.835 277.865 277.823 257.812 304.961 240.697C344.45 215.794 401.96 202.015 451.648 205.552C515.696 210.111 575.503 235.959 618.748 277.77C650.248 308.225 672.753 349.427 679.322 388.672C680.904 398.12 681.394 405.481 681.394 419.787C681.394 441.033 681.634 441.798 689.406 445.302C693.186 447.007 693.933 447.046 697.638 445.737C705.361 443.008 705.906 441.288 705.807 419.966C705.713 399.872 703.967 386.763 698.862 367.812C691.961 342.196 676.054 312.024 656.544 287.544C648.833 277.868 629.331 258.252 619.385 250.167C600.197 234.568 569.859 216.577 547.862 207.753C519.783 196.489 489.32 189.069 461.894 186.815C450.682 185.893 420.545 185.707 410.394 186.496ZM411.394 246.831C371.705 251.717 336.458 267.98 308.797 294.171C282.098 319.449 267.195 346.325 259.858 382.423C257.767 392.712 257.395 397.33 257.398 412.923C257.402 433.374 258.86 445.162 263.129 459.266C265.332 466.546 266.581 468.951 269.755 472.032C274.692 476.822 277.33 477.475 283.003 475.309C286.662 473.911 287.935 472.736 289.679 469.148C292.065 464.235 292.314 466.515 286.638 441.297C285.503 436.255 285.039 428.562 284.978 413.797C284.885 391.2 285.782 384.062 290.629 368.797C296.719 349.617 304.652 335.514 317.734 320.609C340.5 294.67 368.873 278.311 404.394 270.644C418.549 267.588 451.147 267.299 464.394 270.112C496.072 276.838 523.062 291.368 545.445 313.748C570.418 338.716 582.904 365.554 584.083 396.797C584.9 418.424 581.23 435.696 572.084 453.276C568.02 461.088 563.849 466.617 550.221 482.261C542.493 491.133 541.119 495.307 543.958 501.29C548.05 509.913 558.738 513.229 567.996 508.748C577.901 503.953 593.988 484.789 601.88 468.383C611.955 447.438 615.602 431.247 615.525 407.797C615.395 368.18 603.02 337.74 573.894 305.39C560.424 290.429 537.134 272.998 519.175 264.436C510.075 260.098 489.785 253.114 479.894 250.915C461.64 246.857 427.646 244.83 411.394 246.831Z" fill="url(#paint0_linear_255_3021)"/>
<path d="M445.794 391.562C444.029 392.741 442.678 395.965 441.925 400.797C439.824 414.274 433.574 441.803 431.198 448.047L430.151 450.797L417.523 450.891C397.384 451.041 386.719 452.042 384.799 453.962C382.053 456.71 383.689 460.507 388.152 461.747C393.119 463.126 430.196 463.111 434.164 461.727C437.693 460.497 439.222 457.345 441.892 445.797C442.846 441.672 443.984 436.947 444.42 435.297L445.214 432.297L446.93 438.5C447.43 440 448.576 462.16 449.825 483.297C452.187 523.272 452.503 526.258 454.564 528.032C458.591 531.499 462.394 526.765 462.394 518.286C462.394 515.876 463.273 506.568 464.348 497.601C465.423 488.634 467.009 474.681 467.872 466.595C469.873 447.857 471.215 441.13 472.955 441.13C473.41 441.314 476.618 447.122 478.554 451.797C480.969 457.632 482.829 460.684 484.483 461.532C487.504 463.08 551.856 463.332 555.855 461.812C558.897 460.655 559.843 458.721 559.002 455.372C557.941 451.145 553.509 450.502 529.52 451.094C517.626 451.388 503.296 451.374 497.677 451.064L487.459 450.499L484.788 442.398C480.126 428.256 476.971 423.797 471.626 423.797C468.487 423.797 464.79 427.705 463.496 432.388C462.912 434.504 461.648 442.763 460.688 450.742C458.592 468.144 457.961 466.282 456.978 439.797C455.971 412.65 454.447 395.599 452.8 393.047C451.374 390.837 447.962 390.114 445.794 391.562Z" fill="url(#paint1_linear_255_3021)"/>
<path d="M436.394 328.217C422.526 331.123 405.628 338.057 392.894 346.066C379.107 354.738 361.101 371.191 357.282 378.609C356.52 380.087 355.596 381.526 355.228 381.805C352.342 383.996 343.175 403.896 339.339 416.297C332.843 437.295 334.928 472.145 344.067 495.297C348.426 506.341 351.883 512.651 359.954 524.297C372.785 542.811 385.798 554.514 416.394 575.056C433.693 586.67 448.201 596.915 483.758 622.626C495.142 630.858 508.86 637.907 518.021 640.233C541.462 646.183 568.123 642.982 591.946 631.356C606.346 624.329 616.433 616.713 629.644 602.897L640.394 591.654C642.148 589.365 645.055 588.501 645.5 588.5C646.25 588.751 649.304 589.392 651 592.121C650.968 609.361 647.953 633.194 637.773 646.5C613.949 677.642 550.89 689.674 507.516 677.15C492.797 672.901 475.17 662.424 454.564 647.5C443.965 639.823 449.021 643.682 432.894 641.252C418.458 639.076 392.321 632.52 380.394 628.082C318.147 604.923 267.872 560.926 238.678 504.065C232.724 492.468 221.417 464 221.417 461.595L220.38 457.446C217.255 444.947 209.925 439.885 201.361 444.314C196.451 446.853 195.028 450.876 196.352 458.477C198.324 469.803 207.229 494.664 215.007 510.56C221.862 524.57 237.8 547.366 243.65 556.433C249.5 565.5 267 578.5 275 587.5C283 596.5 340.5 651.833 432.986 662C462.761 686.913 478.694 696.128 506.355 708.126C531.726 715.18 563.965 715.014 590.219 707.693C630.603 696.432 664.265 664.445 674.077 628.008C676.232 620.008 676.685 616.183 676.652 606.297C676.518 567.005 657.971 540.078 637.773 549.855C634.66 551.363 629.485 556.578 618.443 569.338C596.319 594.905 584.566 604.039 564.616 611.173C556.36 614.126 553.787 616.498 539.93 616.5C530.716 615.609 525.623 614.72 517.254 609.54C512.033 606.886 500.377 599.184 490.894 592.121C481.544 585.158 463.319 572.017 450.394 562.921C417.975 540.105 411.321 534.897 400.394 523.792C385.117 508.265 375.634 490.83 371.092 469.919C368.109 456.183 368.178 431.729 371.231 420.297C381.343 382.433 415.098 355.782 452.894 355.821C471.835 355.841 485.892 360.904 501.394 373.291C506.069 377.027 511.342 380.694 513.112 381.44C522.012 385.193 532.993 380.19 535.815 371.096C536.19 369.886 535.996 367.032 535.383 364.756C532.226 353.031 506.931 336.73 481.688 330.152C469.56 326.992 446.869 326.022 436.394 328.217Z" fill="url(#paint2_linear_255_3021)"/>
<defs>
<linearGradient id="paint0_linear_255_3021" x1="449.908" y1="186" x2="449.908" y2="713.302" gradientUnits="userSpaceOnUse">
<stop stop-color="#10C2FC"/>
<stop offset="1" stop-color="#044CAE"/>
</linearGradient>
<linearGradient id="paint1_linear_255_3021" x1="449.908" y1="186" x2="449.908" y2="713.302" gradientUnits="userSpaceOnUse">
<stop stop-color="#10C2FC"/>
<stop offset="1" stop-color="#044CAE"/>
</linearGradient>
<linearGradient id="paint2_linear_255_3021" x1="449.908" y1="186" x2="449.908" y2="713.302" gradientUnits="userSpaceOnUse">
<stop stop-color="#10C2FC"/>
<stop offset="1" stop-color="#044CAE"/>
</linearGradient>
</defs>
</svg>
