<svg width="32" height="32" viewBox="0 0 32 32" fill="none" xmlns="http://www.w3.org/2000/svg">
<rect x="0.5" y="0.5" width="30.5077" height="31" rx="7.5" fill="#F9F9F9"/>
<rect x="0.5" y="0.5" width="30.5077" height="31" rx="7.5" stroke="#0085FE"/>
<path d="M25.1628 15.8811L22.5781 13.2561C22.4981 13.1749 22.4031 13.1104 22.2985 13.0665C22.194 13.0226 22.0819 13 21.9687 13C21.8556 13 21.7435 13.0227 21.639 13.0667C21.5345 13.1108 21.4395 13.1753 21.3595 13.2566C21.2795 13.3378 21.2161 13.4344 21.1728 13.5405C21.1295 13.6467 21.1073 13.7606 21.1073 13.8755C21.1074 13.9904 21.1297 14.1042 21.173 14.2104C21.2164 14.3165 21.2799 14.413 21.3599 14.4942L22.4739 15.6247H17.6613C17.4328 15.6247 17.2137 15.7169 17.0521 15.881C16.8906 16.0451 16.7998 16.2677 16.7998 16.4997C16.7998 16.7318 16.8906 16.9544 17.0521 17.1185C17.2137 17.2826 17.4328 17.3747 17.6613 17.3747H22.4739L21.3599 18.5061C21.2776 18.5868 21.212 18.6834 21.1669 18.7901C21.1217 18.8969 21.0979 19.0117 21.0969 19.1279C21.0959 19.2441 21.1177 19.3593 21.1611 19.4668C21.2044 19.5744 21.2684 19.6721 21.3492 19.7542C21.4301 19.8364 21.5263 19.9013 21.6322 19.9453C21.7381 19.9893 21.8515 20.0115 21.9659 20.0105C22.0803 20.0094 22.1934 19.9853 22.2985 19.9395C22.4036 19.8936 22.4987 19.8269 22.5781 19.7434L25.1628 17.1184C25.2429 17.0371 25.3064 16.9406 25.3498 16.8344C25.3931 16.7282 25.4154 16.6143 25.4154 16.4993C25.4154 16.3843 25.3931 16.2705 25.3498 16.1642C25.3064 16.058 25.2429 15.9615 25.1628 15.8802V15.8811Z" fill="#0085FE"/>
<path d="M17.6623 17.375C17.4338 17.375 17.2146 17.2828 17.0531 17.1187C16.8915 16.9546 16.8007 16.7321 16.8007 16.5C16.8007 16.2679 16.8915 16.0454 17.0531 15.8813C17.2146 15.7172 17.4338 15.625 17.6623 15.625H21.1084V10.375C21.1077 9.67902 20.8352 9.01174 20.3506 8.51961C19.8661 8.02748 19.2091 7.75069 18.5238 7.75H11.6315C10.9462 7.75069 10.2892 8.02748 9.80465 8.51961C9.32009 9.01174 9.04756 9.67902 9.04688 10.375V22.625C9.04756 23.321 9.32009 23.9883 9.80465 24.4804C10.2892 24.9725 10.9462 25.2493 11.6315 25.25H18.5238C19.2091 25.2493 19.8661 24.9725 20.3506 24.4804C20.8352 23.9883 21.1077 23.321 21.1084 22.625V17.375H17.6623Z" fill="#0085FE" fill-opacity="0.6"/>
</svg>
