<svg width="9" height="8" viewBox="0 0 9 8" fill="none" xmlns="http://www.w3.org/2000/svg">
<path d="M6.49959 1.71582C6.50375 2.64932 6.12698 3.54649 5.45109 4.21251C4.77519 4.87854 3.85475 5.25965 2.88962 5.27308C2.41617 5.26834 1.94855 5.17092 1.51497 4.98668C1.08138 4.80244 0.690818 4.53521 0.366823 4.2011C0.457538 5.18321 0.919597 6.09869 1.66453 6.77227C2.40947 7.44585 3.38495 7.8302 4.4042 7.85173C5.50649 7.83857 6.55816 7.40341 7.32884 6.64158C8.09953 5.87976 8.52638 4.85337 8.5159 3.78727C8.53072 2.99359 8.30743 2.2126 7.87304 1.53878C7.43865 0.864961 6.81177 0.327175 6.06823 -0.0095275C6.35607 0.522782 6.5042 1.11529 6.49959 1.71582Z" fill="#282A2E"/>
</svg>
