<svg width="13" height="12" viewBox="0 0 13 12" fill="none" xmlns="http://www.w3.org/2000/svg">
<rect width="13" height="12" fill="#F5F5F5"/>
<g clip-path="url(#clip0_0_1)">
<rect width="1366" height="764" transform="translate(-298 -23)" fill="white"/>
<path d="M1068 -23H-298V741H1068V-23Z" fill="white"/>
<path d="M-298 -23H6V741H-298V-23Z" fill="white"/>
<rect x="-32.2011" y="-9.49521" width="55" height="30.5077" rx="11.5" transform="rotate(0.551961 -32.2011 -9.49521)" fill="white"/>
<rect x="-32.2011" y="-9.49521" width="55" height="30.5077" rx="11.5" transform="rotate(0.551961 -32.2011 -9.49521)" stroke="#0085FE"/>
<g opacity="0.3" filter="url(#filter0_f_0_1)">
<path d="M-4 20.6875L-3.8103 0.996105L14.6616 1.17406C19.0796 1.21662 22.6267 4.83268 22.5841 9.25075L22.5486 12.9429C22.506 17.361 18.8899 20.908 14.4719 20.8655L-4 20.6875Z" fill="url(#paint0_linear_0_1)"/>
</g>
<rect x="-3.25972" y="-3.30771" width="19.3636" height="18.6923" rx="7.5" transform="rotate(0.551961 -3.25972 -3.30771)" fill="white"/>
<rect x="-3.25972" y="-3.30771" width="19.3636" height="18.6923" rx="7.5" transform="rotate(0.551961 -3.25972 -3.30771)" stroke="#0085FE"/>
<path d="M6.12588 10.0991C5.96387 10.0976 5.80789 10.1583 5.69226 10.268C5.57663 10.3777 5.51082 10.5273 5.50931 10.684L5.50362 11.2747C5.50211 11.4314 5.56502 11.5823 5.67852 11.6942C5.79201 11.8061 5.94679 11.8698 6.10881 11.8714C6.27082 11.8729 6.4268 11.8122 6.54243 11.7025C6.65806 11.5928 6.72387 11.4432 6.72538 11.2865L6.73107 10.6958C6.73258 10.5391 6.66967 10.3882 6.55617 10.2763C6.44268 10.1644 6.2879 10.1007 6.12588 10.0991ZM9.18393 9.75048L9.61361 10.1741C9.72701 10.2852 9.88124 10.3485 10.0426 10.35C10.204 10.3516 10.3594 10.2913 10.475 10.1824C10.5898 10.0728 10.6551 9.92368 10.6566 9.76762C10.6581 9.61155 10.5957 9.46121 10.483 9.34943L10.0533 8.92583C9.93736 8.82792 9.78753 8.7759 9.63373 8.78017C9.47993 8.78443 9.33349 8.84466 9.22369 8.94882C9.11388 9.05298 9.04878 9.19339 9.04141 9.34201C9.03404 9.49063 9.08494 9.6365 9.18393 9.75048ZM1.88955 5.92274C1.89106 5.76606 1.82815 5.61518 1.71465 5.5033C1.60116 5.39141 1.44638 5.32767 1.28436 5.32611L0.673483 5.32022C0.511467 5.31866 0.355488 5.37941 0.239858 5.48909C0.124228 5.59877 0.0584202 5.74841 0.0569109 5.90508C0.0554015 6.06176 0.118314 6.21263 0.231809 6.32452C0.345305 6.43641 0.500085 6.50015 0.662101 6.50171L1.27298 6.50759C1.435 6.50915 1.59098 6.44841 1.70661 6.33873C1.82224 6.22905 1.88804 6.07941 1.88955 5.92274ZM3.35123 2.59291C3.35204 2.43793 3.28985 2.2888 3.17805 2.17768L2.74837 1.75408C2.6942 1.69171 2.62729 1.64084 2.55185 1.60465C2.4764 1.56846 2.39404 1.54774 2.30994 1.54379C2.22584 1.53983 2.14182 1.55273 2.06314 1.58168C1.98446 1.61062 1.91283 1.65498 1.85274 1.71198C1.79266 1.76898 1.74541 1.83738 1.71397 1.91289C1.68252 1.9884 1.66757 2.06939 1.67003 2.15078C1.6725 2.23217 1.69233 2.31219 1.72829 2.38584C1.76426 2.45948 1.81557 2.52515 1.879 2.57873L2.30897 2.97279C2.42237 3.08392 2.5766 3.14717 2.73799 3.14873C2.89937 3.15028 3.0548 3.09002 3.17031 2.98109C3.27844 2.87798 3.34294 2.73959 3.35123 2.59291ZM3.10578 9.6801C3.21969 9.57116 3.28475 9.42326 3.28692 9.26829C3.28813 9.19055 3.27346 9.11333 3.24376 9.04107C3.21405 8.9688 3.16989 8.9029 3.1138 8.84716C3.00041 8.73603 2.84617 8.67278 2.68479 8.67123C2.5234 8.66967 2.36798 8.72994 2.25246 8.83886L1.81469 9.25411C1.75681 9.30825 1.71052 9.37289 1.67848 9.44434C1.64644 9.5158 1.62927 9.59266 1.62796 9.67055C1.62664 9.74844 1.6412 9.82583 1.6708 9.8983C1.70041 9.97076 1.74448 10.0369 1.8005 10.0929C1.85653 10.1489 1.9234 10.1937 1.99731 10.2247C2.07122 10.2558 2.15072 10.2724 2.23126 10.2738C2.39393 10.2764 2.55099 10.2165 2.6679 10.1072L3.10578 9.6801ZM5.60606 0.641371L5.60037 1.23211C5.59886 1.38879 5.66177 1.53966 5.77527 1.65155C5.88876 1.76344 6.04354 1.82718 6.20556 1.82874C6.36757 1.8303 6.52355 1.76956 6.63918 1.65988C6.75481 1.55019 6.82062 1.40056 6.82213 1.24388L6.82782 0.653142C6.82933 0.496467 6.76642 0.345588 6.65292 0.233699C6.53942 0.12181 6.38464 0.0580749 6.22263 0.056514C6.06061 0.0549532 5.90463 0.115695 5.789 0.225376C5.67337 0.335058 5.60757 0.484697 5.60606 0.641371ZM9.25632 2.23624C9.19068 2.34785 9.16446 2.47713 9.18162 2.6045C9.19878 2.73186 9.25839 2.85038 9.35142 2.9421C9.44445 3.03381 9.56584 3.09373 9.69719 3.11278C9.82855 3.13182 9.96272 3.10896 10.0794 3.04765L10.5171 2.6324C10.632 2.52282 10.6973 2.37371 10.6988 2.21764C10.7003 2.06158 10.6379 1.91124 10.5252 1.79946C10.4118 1.68833 10.2575 1.62508 10.0961 1.62353C9.93476 1.62197 9.77934 1.68224 9.66382 1.79116L9.25632 2.23624ZM2.80587 5.93156C2.79968 6.57417 2.99068 7.20425 3.35472 7.74211C3.71876 8.27998 4.23948 8.70147 4.85104 8.9533C5.46261 9.20513 6.13754 9.27598 6.79049 9.1569C7.44345 9.03781 8.04509 8.73413 8.51935 8.28427C8.99361 7.8344 9.31919 7.25855 9.4549 6.62954C9.59061 6.00053 9.53037 5.34661 9.28179 4.75047C9.03321 4.15433 8.60746 3.64274 8.05837 3.2804C7.50929 2.91807 6.86153 2.72125 6.19702 2.71485C5.30641 2.70783 4.44946 3.04242 3.81385 3.64534C3.17824 4.24826 2.81579 5.07035 2.80587 5.93156ZM8.3038 5.98453C8.29986 6.39346 8.17061 6.792 7.9324 7.12975C7.69419 7.46751 7.35772 7.7293 6.96552 7.88203C6.57333 8.03475 6.14304 8.07156 5.72906 7.98778C5.31508 7.90401 4.93601 7.70342 4.63978 7.41138C4.34355 7.11934 4.14347 6.74897 4.06483 6.3471C3.9862 5.94523 4.03254 5.52991 4.19801 5.15367C4.36348 4.77742 4.64063 4.45715 4.99442 4.23335C5.34822 4.00954 5.76276 3.89226 6.18564 3.89634C6.75269 3.9018 7.29442 4.12487 7.69166 4.51649C8.08889 4.9081 8.30908 5.43617 8.3038 5.98453ZM10.4419 6.00513C10.4404 6.1618 10.5033 6.31268 10.6168 6.42457C10.7303 6.53646 10.8851 6.60019 11.0471 6.60175L11.658 6.60764C11.82 6.6092 11.9759 6.54846 12.0916 6.43878C12.2072 6.3291 12.273 6.17946 12.2745 6.02278C12.276 5.86611 12.2131 5.71523 12.0996 5.60334C11.9861 5.49145 11.8314 5.42772 11.6693 5.42616L11.0585 5.42027C10.8964 5.41871 10.7405 5.47945 10.6248 5.58913C10.5092 5.69882 10.4434 5.84845 10.4419 6.00513Z" fill="#282A2E"/>
</g>
<defs>
<filter id="filter0_f_0_1" x="-8" y="-3" width="34.6611" height="27.9453" filterUnits="userSpaceOnUse" color-interpolation-filters="sRGB">
<feFlood flood-opacity="0" result="BackgroundImageFix"/>
<feBlend mode="normal" in="SourceGraphic" in2="BackgroundImageFix" result="shape"/>
<feGaussianBlur stdDeviation="2" result="effect1_foregroundBlur_0_1"/>
</filter>
<linearGradient id="paint0_linear_0_1" x1="2.71273" y1="10.9056" x2="22.5664" y2="11.0968" gradientUnits="userSpaceOnUse">
<stop offset="0.318305" stop-color="#0085FE"/>
<stop offset="0.775231" stop-color="#0085FE" stop-opacity="0.37"/>
<stop offset="1" stop-color="#0085FE" stop-opacity="0"/>
</linearGradient>
<clipPath id="clip0_0_1">
<rect width="1366" height="764" fill="white" transform="translate(-298 -23)"/>
</clipPath>
</defs>
</svg>
